<?xml version="1.0" encoding="UTF-8" standalone="no"?>
<!-- Generator: Adobe Illustrator 20.1.0, SVG Export Plug-In . SVG Version: 6.00 Build 0)  -->

<svg
   xmlns:dc="http://purl.org/dc/elements/1.1/"
   xmlns:cc="http://creativecommons.org/ns#"
   xmlns:rdf="http://www.w3.org/1999/02/22-rdf-syntax-ns#"
   xmlns:svg="http://www.w3.org/2000/svg"
   xmlns="http://www.w3.org/2000/svg"
   xmlns:sodipodi="http://sodipodi.sourceforge.net/DTD/sodipodi-0.dtd"
   xmlns:inkscape="http://www.inkscape.org/namespaces/inkscape"
   version="1.1"
   id="Warstwa_1"
   x="0px"
   y="0px"
   width="252.8px"
   height="252.1px"
   viewBox="0 0 252.8 252.1"
   enable-background="new 0 0 252.8 252.1"
   xml:space="preserve"
   inkscape:version="0.91 r13725"
   sodipodi:docname="citations.svg"><metadata
     id="metadata17"><rdf:RDF><cc:Work
         rdf:about=""><dc:format>image/svg+xml</dc:format><dc:type
           rdf:resource="http://purl.org/dc/dcmitype/StillImage" /></cc:Work></rdf:RDF></metadata><defs
     id="defs15" /><sodipodi:namedview
     pagecolor="#ffffff"
     bordercolor="#666666"
     borderopacity="1"
     objecttolerance="10"
     gridtolerance="10"
     guidetolerance="10"
     inkscape:pageopacity="0"
     inkscape:pageshadow="2"
     inkscape:window-width="716"
     inkscape:window-height="480"
     id="namedview13"
     showgrid="false"
     inkscape:zoom="0.93613643"
     inkscape:cx="126.4"
     inkscape:cy="126.05"
     inkscape:window-x="0"
     inkscape:window-y="0"
     inkscape:window-maximized="0"
     inkscape:current-layer="Warstwa_1" /><path
     fill="#FECE5A"
     d="M1036.6,127.3"
     id="path3"
     style="opacity:0.5" /><g
     id="g5"
     style="opacity:0.5"><path
       fill="#565D73"
       d="M126.1,0.8C56.5,0.8,0,57.3,0,126.9S56.5,253,126.1,253s126.1-56.5,126.1-126.1   C252.1,56.8,195.7,0.8,126.1,0.8z M126.1,242.9c-64,0-116-51.9-116-116s51.9-116,116-116c64,0,116,51.9,116,116   C242.1,190.4,190.1,242.9,126.1,242.9z"
       id="path7"
       style="" /></g><path
     fill="#565D73"
     d="M126.1,126.9"
     id="path9"
     style="opacity:0.5" /><path
     fill="#565D73"
     d="M170.7,80.2H81.5c-4.9,0-8.9,4-8.9,8.9v58c0,4.9,4,8.9,8.9,8.9h8.9v17.6L108,156h62.6c4.9,0,8.9-4,8.9-8.9  v-58C179.6,84.2,175.6,80.2,170.7,80.2z M122,114.1c0,6.9-0.8,11.9-2.4,14.9c-2.2,4.2-5.7,7.3-10.4,9.4l-3.4-5.5  c2.8-1.1,4.9-2.9,6.2-5.4c1.4-2.4,2.1-5.8,2.3-10.1H107v-16.1h14.9v12.8H122z M146,114.1c0,6.9-0.8,11.9-2.4,14.9  c-2.2,4.2-5.7,7.3-10.4,9.4l-3.4-5.5c2.8-1.1,4.9-2.9,6.2-5.4c1.4-2.4,2.1-5.8,2.3-10.1H131v-16.1h14.9v12.8H146z"
     id="path11"
     style="opacity:0.5" /></svg>