<?xml version="1.0" encoding="UTF-8" standalone="no"?>
<!-- Generator: Adobe Illustrator 20.1.0, SVG Export Plug-In . SVG Version: 6.00 Build 0)  -->

<svg
   xmlns:dc="http://purl.org/dc/elements/1.1/"
   xmlns:cc="http://creativecommons.org/ns#"
   xmlns:rdf="http://www.w3.org/1999/02/22-rdf-syntax-ns#"
   xmlns:svg="http://www.w3.org/2000/svg"
   xmlns="http://www.w3.org/2000/svg"
   xmlns:sodipodi="http://sodipodi.sourceforge.net/DTD/sodipodi-0.dtd"
   xmlns:inkscape="http://www.inkscape.org/namespaces/inkscape"
   version="1.1"
   id="Warstwa_1"
   x="0px"
   y="0px"
   width="252.8px"
   height="252.1px"
   viewBox="0 0 252.8 252.1"
   enable-background="new 0 0 252.8 252.1"
   xml:space="preserve"
   inkscape:version="0.91 r13725"
   sodipodi:docname="cite.svg"><metadata
     id="metadata17"><rdf:RDF><cc:Work
         rdf:about=""><dc:format>image/svg+xml</dc:format><dc:type
           rdf:resource="http://purl.org/dc/dcmitype/StillImage" /></cc:Work></rdf:RDF></metadata><defs
     id="defs15" /><sodipodi:namedview
     pagecolor="#ffffff"
     bordercolor="#666666"
     borderopacity="1"
     objecttolerance="10"
     gridtolerance="10"
     guidetolerance="10"
     inkscape:pageopacity="0"
     inkscape:pageshadow="2"
     inkscape:window-width="716"
     inkscape:window-height="480"
     id="namedview13"
     showgrid="false"
     inkscape:zoom="0.93613643"
     inkscape:cx="126.4"
     inkscape:cy="126.05"
     inkscape:window-x="0"
     inkscape:window-y="0"
     inkscape:window-maximized="0"
     inkscape:current-layer="Warstwa_1" /><path
     fill="#FECE5A"
     d="M1036.6,127.3"
     id="path3"
     style="opacity:0.5" /><g
     id="g5"
     style="opacity:0.5"><path
       fill="#73BF91"
       d="M126,0.2C56.4,0.2,0,56.7,0,126.3s56.4,126,126,126s126.1-56.5,126.1-126.1C252.1,56.2,195.6,0.2,126,0.2z    M126,242.2c-64,0-116-51.9-116-116S62,10.3,126,10.3s116,51.9,116,116C242,189.8,190.1,242.2,126,242.2z"
       id="path7"
       style="" /></g><path
     fill="#73BF91"
     d="M126,126.3"
     id="path9"
     style="opacity:0.5" /><path
     fill="#73BF91"
     d="M170.8,81.4h-39c-1.5,0-3,0.4-4.3,1.3v85.4h-4.3V82.5c-1.3-0.9-2.8-1.3-4.3-1.3h-39c-4.8,0-8.7,3.9-8.7,8.7  v73.7c0,4.8,3.9,8.7,8.7,8.7h39c0,0,0,0,0.2,0c2.4,0,4.1,1.9,4.1,4.1v4.5h4.3v-2.4v-1.9c0-2.4,2-4.3,4.1-4.3h39  c4.8,0,8.7-3.9,8.7-8.7V89.9C179.5,85.3,175.6,81.4,170.8,81.4z M96.6,106.9v7h-6.4v-5.5c0-3,0.3-5.1,1-6.4c1-1.8,2.4-3.2,4.5-4.1  l1.5,2.4c-1.2,0.5-2.1,1.3-2.7,2.3c-0.6,1.1-0.9,2.5-1,4.4h3.1V106.9z M106.9,106.9v7h-6.4v-5.5c0-3,0.3-5.1,1-6.4  c1-1.8,2.4-3.2,4.5-4.1l1.5,2.4c-1.2,0.5-2.1,1.3-2.7,2.3c-0.6,1.1-0.9,2.5-1,4.4h3.1V106.9z M150.5,144.5c0,3-0.3,5.1-1,6.4  c-1,1.8-2.4,3.2-4.5,4.1l-1.5-2.4c1.2-0.5,2.1-1.3,2.7-2.3c0.6-1.1,0.9-2.5,1-4.4h-3.1v-7h6.4L150.5,144.5L150.5,144.5z   M160.9,144.5c0,3-0.3,5.1-1,6.4c-1,1.8-2.4,3.2-4.5,4.1l-1.5-2.4c1.2-0.5,2.1-1.3,2.7-2.3c0.6-1.1,0.9-2.5,1-4.4h-3.1v-7h6.4  L160.9,144.5L160.9,144.5z"
     id="path11"
     style="opacity:0.5" /></svg>