<?xml version="1.0" encoding="UTF-8" standalone="no"?>
<!-- Generator: Adobe Illustrator 20.1.0, SVG Export Plug-In . SVG Version: 6.00 Build 0)  -->

<svg
   xmlns:dc="http://purl.org/dc/elements/1.1/"
   xmlns:cc="http://creativecommons.org/ns#"
   xmlns:rdf="http://www.w3.org/1999/02/22-rdf-syntax-ns#"
   xmlns:svg="http://www.w3.org/2000/svg"
   xmlns="http://www.w3.org/2000/svg"
   xmlns:sodipodi="http://sodipodi.sourceforge.net/DTD/sodipodi-0.dtd"
   xmlns:inkscape="http://www.inkscape.org/namespaces/inkscape"
   version="1.1"
   id="Warstwa_1"
   x="0px"
   y="0px"
   width="252.8px"
   height="252.1px"
   viewBox="0 0 252.8 252.1"
   enable-background="new 0 0 252.8 252.1"
   xml:space="preserve"
   inkscape:version="0.91 r13725"
   sodipodi:docname="comments.svg"><metadata
     id="metadata19"><rdf:RDF><cc:Work
         rdf:about=""><dc:format>image/svg+xml</dc:format><dc:type
           rdf:resource="http://purl.org/dc/dcmitype/StillImage" /></cc:Work></rdf:RDF></metadata><defs
     id="defs17" /><sodipodi:namedview
     pagecolor="#ffffff"
     bordercolor="#666666"
     borderopacity="1"
     objecttolerance="10"
     gridtolerance="10"
     guidetolerance="10"
     inkscape:pageopacity="0"
     inkscape:pageshadow="2"
     inkscape:window-width="716"
     inkscape:window-height="480"
     id="namedview15"
     showgrid="false"
     inkscape:zoom="0.93613643"
     inkscape:cx="126.4"
     inkscape:cy="126.05"
     inkscape:window-x="401"
     inkscape:window-y="309"
     inkscape:window-maximized="0"
     inkscape:current-layer="Warstwa_1" /><path
     fill="#FECE5A"
     d="M1036.6,127.3"
     id="path3"
     style="opacity:0.5" /><g
     id="g5"
     style="opacity:0.5"><path
       fill="#FECE5A"
       d="M102.6,103h-5.8H67.7v62.8h11.6v18.6h3l18.6-18.6H149v-27.7v-7.2v-4.6V103h-41.8H102.6z M79,130.8h34.1v4   H79V130.8z M137.1,145.8H79v-4h58.1V145.8z M137.1,123H79v-4h58.1V123z"
       id="path7"
       style="" /><polygon
       fill="#FECE5A"
       points="103.6,67.6 103.6,97.8 108.3,97.8 112.9,97.8 154.8,97.8 154.8,121.1 154.8,125.7 154.8,130.4    185,130.4 185,67.6  "
       id="polygon9"
       style="" /></g><g
     id="g11"
     style="opacity:0.5"><path
       fill="#FECE5A"
       d="M126.4-0.1C56.8-0.1,0.3,56.4,0.3,126s56.5,126,126.1,126c69.6,0,126.1-56.5,126.1-126.1   C252.4,55.9,195.9-0.1,126.4-0.1z M126.4,241.9c-64,0-116-51.9-116-116s51.9-116,116-116s116,51.9,116,116   C242.3,189.5,190.4,241.9,126.4,241.9z"
       id="path13"
       style="" /></g></svg>