<?xml version="1.0" encoding="UTF-8" standalone="no"?>
<!-- Generator: Adobe Illustrator 20.1.0, SVG Export Plug-In . SVG Version: 6.00 Build 0)  -->

<svg
   xmlns:dc="http://purl.org/dc/elements/1.1/"
   xmlns:cc="http://creativecommons.org/ns#"
   xmlns:rdf="http://www.w3.org/1999/02/22-rdf-syntax-ns#"
   xmlns:svg="http://www.w3.org/2000/svg"
   xmlns="http://www.w3.org/2000/svg"
   xmlns:sodipodi="http://sodipodi.sourceforge.net/DTD/sodipodi-0.dtd"
   xmlns:inkscape="http://www.inkscape.org/namespaces/inkscape"
   version="1.1"
   id="Warstwa_1"
   x="0px"
   y="0px"
   width="252.8px"
   height="252.1px"
   viewBox="0 0 252.8 252.1"
   enable-background="new 0 0 252.8 252.1"
   xml:space="preserve"
   inkscape:version="0.91 r13725"
   sodipodi:docname="files.svg"><metadata
     id="metadata19"><rdf:RDF><cc:Work
         rdf:about=""><dc:format>image/svg+xml</dc:format><dc:type
           rdf:resource="http://purl.org/dc/dcmitype/StillImage" /></cc:Work></rdf:RDF></metadata><defs
     id="defs17" /><sodipodi:namedview
     pagecolor="#ffffff"
     bordercolor="#666666"
     borderopacity="1"
     objecttolerance="10"
     gridtolerance="10"
     guidetolerance="10"
     inkscape:pageopacity="0"
     inkscape:pageshadow="2"
     inkscape:window-width="716"
     inkscape:window-height="480"
     id="namedview15"
     showgrid="false"
     showguides="false"
     inkscape:zoom="0.93613643"
     inkscape:cx="126.4"
     inkscape:cy="126.05"
     inkscape:window-x="311"
     inkscape:window-y="106"
     inkscape:window-maximized="0"
     inkscape:current-layer="Warstwa_1" /><g
     id="g3"
     style="opacity:0.5"><path
       d="M126.8,0C57.2,0,0.7,56.5,0.7,126.1s56.5,126.1,126.1,126.1s126.1-56.5,126.1-126.1   C252.8,56,196.4,0,126.8,0z M126.8,242c-64,0-116-51.9-116-116s51.9-116,116-116s116,51.9,116,116C242.8,189.6,190.8,242,126.8,242   z"
       id="path5"
       style=""
       fill="#EA5457" /></g><g
     id="g7"
     style="opacity:0.5"><path
       fill="#EA5457"
       d="M149.4,163v17.4l17.5-18.7h-16.2C150,161.7,149.4,162.3,149.4,163z"
       id="path9"
       style="" /><path
       fill="#EA5457"
       d="M173.5,60.4H80.1c-1.8,0-3.2,1.4-3.2,3.2v124.9c0,1.8,1.4,3.2,3.2,3.2H143V163c0-4.3,3.5-7.8,7.8-7.8h26   V63.6C176.7,61.8,175.2,60.4,173.5,60.4z M96.5,75.8h56.3c1.8,0,3.2,1.4,3.2,3.2c0,1.8-1.4,3.2-3.2,3.2H96.5   c-1.8,0-3.2-1.4-3.2-3.2C93.3,77.3,94.8,75.8,96.5,75.8z M96.5,95.5h56.3c1.8,0,3.2,1.4,3.2,3.2c0,1.8-1.4,3.2-3.2,3.2H96.5   c-1.8,0-3.2-1.4-3.2-3.2S94.8,95.5,96.5,95.5z M96.5,115.1h46.3c1.8,0,3.2,1.4,3.2,3.2s-1.4,3.2-3.2,3.2H96.5   c-1.8,0-3.2-1.4-3.2-3.2S94.8,115.1,96.5,115.1z M160.7,141.2H96.5c-1.8,0-3.2-1.4-3.2-3.2s1.4-3.2,3.2-3.2h64.1   c1.8,0,3.2,1.4,3.2,3.2C163.9,139.7,162.5,141.2,160.7,141.2z"
       id="path11"
       style="" /></g><path
     fill="#EA5457"
     d="M126.8,126.1"
     id="path13"
     style="opacity:0.5" /></svg>