<?xml version="1.0" encoding="UTF-8" standalone="no"?>
<!-- Generator: Adobe Illustrator 20.1.0, SVG Export Plug-In . SVG Version: 6.00 Build 0)  -->

<svg
   xmlns:dc="http://purl.org/dc/elements/1.1/"
   xmlns:cc="http://creativecommons.org/ns#"
   xmlns:rdf="http://www.w3.org/1999/02/22-rdf-syntax-ns#"
   xmlns:svg="http://www.w3.org/2000/svg"
   xmlns="http://www.w3.org/2000/svg"
   xmlns:sodipodi="http://sodipodi.sourceforge.net/DTD/sodipodi-0.dtd"
   xmlns:inkscape="http://www.inkscape.org/namespaces/inkscape"
   version="1.1"
   id="Warstwa_1"
   x="0px"
   y="0px"
   width="252.8px"
   height="252.1px"
   viewBox="0 0 252.8 252.1"
   enable-background="new 0 0 252.8 252.1"
   xml:space="preserve"
   inkscape:version="0.91 r13725"
   sodipodi:docname="metadata.svg"><metadata
     id="metadata23"><rdf:RDF><cc:Work
         rdf:about=""><dc:format>image/svg+xml</dc:format><dc:type
           rdf:resource="http://purl.org/dc/dcmitype/StillImage" /></cc:Work></rdf:RDF></metadata><defs
     id="defs21" /><sodipodi:namedview
     pagecolor="#ffffff"
     bordercolor="#666666"
     borderopacity="1"
     objecttolerance="10"
     gridtolerance="10"
     guidetolerance="10"
     inkscape:pageopacity="0"
     inkscape:pageshadow="2"
     inkscape:window-width="716"
     inkscape:window-height="480"
     id="namedview19"
     showgrid="false"
     inkscape:zoom="0.93613643"
     inkscape:cx="126.4"
     inkscape:cy="126.05"
     inkscape:window-x="0"
     inkscape:window-y="0"
     inkscape:window-maximized="0"
     inkscape:current-layer="Warstwa_1" /><g
     id="g3"
     style="opacity:0.5"><path
       fill="#5990CC"
       d="M105.3,146.9c0-3.1-1.8-6-4.7-7.3l-26-12.1l26-12.1c2.8-1.3,4.7-4.2,4.7-7.3v-0.2c0-2.8-1.4-5.3-3.7-6.8   c-1.3-0.8-2.8-1.3-4.4-1.3c-1.2,0-2.3,0.3-3.4,0.7l-41.6,19.3c-2.8,1.3-4.7,4.2-4.7,7.3v0.6c0,3.1,1.8,6,4.7,7.3l41.6,19.4   c1.1,0.5,2.2,0.8,3.4,0.8c1.5,0,3-0.4,4.4-1.3c2.3-1.5,3.7-4,3.7-6.8V146.9z"
       id="path5"
       style="" /><path
       fill="#5990CC"
       d="M146.4,80c-1.5-2.1-4-3.3-6.5-3.3h-0.2c-3.5,0-6.6,2.3-7.7,5.6l-27.4,84.9c-0.8,2.5-0.3,5.2,1.2,7.2   c1.5,2.1,4,3.3,6.5,3.3h0.2c3.5,0,6.6-2.3,7.7-5.6l27.4-84.8C148.4,84.8,147.9,82.1,146.4,80L146.4,80z"
       id="path7"
       style="" /><path
       fill="#5990CC"
       d="M199.9,119.8l-41.6-19.3c-1.1-0.5-2.2-0.7-3.4-0.7c-1.6,0-3.1,0.4-4.4,1.3c-2.3,1.5-3.7,4-3.7,6.8v0.2   c0,3.1,1.8,6,4.7,7.3l26,12.1l-26,12.1c-2.8,1.3-4.7,4.2-4.7,7.3v0.2c0,2.8,1.4,5.3,3.7,6.8c1.3,0.8,2.8,1.3,4.4,1.3   c1.2,0,2.3-0.3,3.4-0.8l41.6-19.4c2.8-1.3,4.7-4.2,4.7-7.3v-0.6C204.5,124,202.7,121.2,199.9,119.8L199.9,119.8z"
       id="path9"
       style="" /></g><g
     id="g11"
     style="opacity:0.5"><path
       fill="#5990CC"
       d="M126.1,1.2C56.5,1.2,0,57.7,0,127.3s56.5,126.1,126.1,126.1s126.1-56.5,126.1-126.1   C252.1,57.2,195.6,1.2,126.1,1.2z M126.1,243.2c-64,0-116-51.9-116-116s51.9-116,116-116s116,51.9,116,116   C242,190.8,190.1,243.2,126.1,243.2z"
       id="path13"
       style="" /></g><path
     fill="#5990CC"
     d="M126.1,127.3"
     id="path15"
     style="opacity:0.5" /><path
     fill="#FECE5A"
     d="M1036.6,127.3"
     id="path17"
     style="opacity:0.5" /></svg>