<?xml version="1.0" encoding="UTF-8"?>
<svg width="429px" height="92px" viewBox="0 0 429 92" version="1.1" xmlns="http://www.w3.org/2000/svg" xmlns:xlink="http://www.w3.org/1999/xlink">
    <!-- Generator: Sketch 49.3 (51167) - http://www.bohemiancoding.com/sketch -->
    <title>Page 1</title>
    <desc>Created with Sketch.</desc>
    <defs></defs>
    <g id="Onepanel-for-provider---zone-" stroke="none" stroke-width="1" fill="none" fill-rule="evenodd" stroke-linecap="round" stroke-linejoin="round">
        <g id="Spaces--Transfer-Expand--Copy-2" transform="translate(-876.000000, -1307.000000)">
            <g id="Page-1" transform="translate(877.000000, 1308.000000)">
                <path d="M1,45 L3,45" id="Stroke-1" stroke="#FFFFFF" stroke-width="1.892"></path>
                <path d="M2.42300395,19.6666667 L420.150101,19.6666667" id="Stroke-4" stroke="#CCCCCC" stroke-width="1.892" stroke-dasharray="5.824,5.824,5.824,5.824,5.824,5.824"></path>
                <path d="M2.42300395,34.1666667 L420.150101,34.1666667" id="Stroke-4" stroke="#CCCCCC" stroke-width="1.892" stroke-dasharray="5.824,5.824,5.824,5.824,5.824,5.824"></path>
                <path d="M2.42300395,48.6666667 L420.150101,48.6666667" id="Stroke-4" stroke="#CCCCCC" stroke-width="1.892" stroke-dasharray="5.824,5.824,5.824,5.824,5.824,5.824"></path>
                <path d="M2.42300395,63.1666667 L420.150101,63.1666667" id="Stroke-4" stroke="#CCCCCC" stroke-width="1.892" stroke-dasharray="5.824,5.824,5.824,5.824,5.824,5.824"></path>
                <path d="M2.42300395,77.6666667 L420.150101,77.6666667" id="Stroke-4" stroke="#CCCCCC" stroke-width="1.892" stroke-dasharray="5.824,5.824,5.824,5.824,5.824,5.824"></path>
                <g id="Group-81">
                    <path d="M424.384593,44.6098085 L426.204793,44.6098085" id="Stroke-5" stroke="#FFFFFF" stroke-width="1.892"></path>
                    <polyline id="Stroke-7" stroke="#637B9C" stroke-width="2.838" points="4 77.7215123 28.0621539 77.5510178 53.0559253 40 100.631691 77.8914656 149.741845 40.3415303 174.077922 77.8914656 246.867154 48.7049644 295.326566 78.0083762 343.334074 40 367.725075 47.7658913 417 40.3415303"></polyline>
                    <polyline id="Stroke-9" stroke="#303E51" stroke-width="2.838" points="4 9.44761702 26.6713558 42.8114468 51.1541352 64.6508085 95.3065202 20.4684681 118.236557 65.0529362 141.632088 86.9937872 164.199709 21.3742128 187.595897 65.4557021 233.042344 65.4557021 278.384399 41.9057021 324.037659 64.8525106 347.433847 29.4257021 370.829378 64.8525106 417 86.3899574"></polyline>
                    <polyline id="Stroke-41" stroke="#CCCCCC" stroke-width="1.892" points="0.606583634 0.427276596 0.606583634 89.3957872 426.810927 89.3957872"></polyline>
                </g>
            </g>
        </g>
    </g>
</svg>