<svg xmlns="http://www.w3.org/2000/svg" viewBox="0 0 175.63 169.37"><defs><style>.cls-1{fill:#ddd;}.cls-2{fill:#b9b9b9;}</style></defs><title>Zasób 40</title><g id="Warstwa_2" data-name="Warstwa 2"><g id="Warstwa_1-2" data-name="Warstwa 1"><ellipse class="cls-1" cx="87.81" cy="155.67" rx="87.81" ry="13.7"/><path class="cls-2" d="M118.34,9.49l19.27,19.87V142.3H38V9.49h80.63M118.34,0H38.15c-5.24,0-9.63,4.7-9.63,9.94V142.75c0,5.24,4.39,9,9.63,9h99.61a9,9,0,0,0,9.34-9V29.36a9.42,9.42,0,0,0-2.71-6.71L125,3a9.63,9.63,0,0,0-6.67-3Z"/><path class="cls-2" d="M137.62,33.2h-19a2.37,2.37,0,0,1-2.37-2.37V9.49a2.37,2.37,0,1,1,4.74,0v19h16.6a2.37,2.37,0,0,1,0,4.74Z"/><path class="cls-2" d="M61.5,75.77H55.69v3.75h6.49v2.93H52.1V66.66h9.75v2.93H55.69v3.28H61.5Z"/><path class="cls-2" d="M78,76.41c-.07-1.9-.14-4.19-.14-6.49h-.07c-.49,2-1.15,4.27-1.76,6.12L74.09,82.2H71.3l-1.69-6.12c-.52-1.85-1.05-4.1-1.43-6.16h0C68,72,68,74.48,67.86,76.45l-.28,6h-3.3l1-15.8H70l1.55,5.27c.49,1.83,1,3.8,1.34,5.65H73c.45-1.83,1-3.91,1.5-5.67l1.69-5.25h4.66l.87,15.8H78.22Z"/><path class="cls-2" d="M84.46,66.87a29.3,29.3,0,0,1,4.83-.33,7.58,7.58,0,0,1,4.83,1.27,4.62,4.62,0,0,1,1.69,3.66,5,5,0,0,1-1.45,3.75,7.32,7.32,0,0,1-5.13,1.66A8.86,8.86,0,0,1,88,76.81v5.65H84.46ZM88,74a5.44,5.44,0,0,0,1.2.09c1.9,0,3.07-1,3.07-2.58,0-1.45-1-2.32-2.79-2.32a6.06,6.06,0,0,0-1.48.14Z"/><path class="cls-2" d="M101.13,69.66H96.89v-3H109v3h-4.31v12.8h-3.59Z"/><path class="cls-2" d="M114.76,82.45V76l-5-9.33h4.08l1.62,3.8c.49,1.15.82,2,1.22,3h0c.35-1,.73-1.9,1.2-3l1.59-3.8h4l-5.2,9.21v6.59Z"/></g></g></svg>