<?xml version="1.0" encoding="utf-8"?>
<!-- Generator: Adobe Illustrator 19.2.1, SVG Export Plug-In . SVG Version: 6.00 Build 0)  -->
<!DOCTYPE svg PUBLIC "-//W3C//DTD SVG 1.1//EN" "http://www.w3.org/Graphics/SVG/1.1/DTD/svg11.dtd">
<svg version="1.1" id="Warstwa_1" xmlns="http://www.w3.org/2000/svg" xmlns:xlink="http://www.w3.org/1999/xlink" x="0px" y="0px"
	 width="638.3px" height="182.7px" viewBox="0 0 638.3 182.7" enable-background="new 0 0 638.3 182.7" xml:space="preserve">
<ellipse fill="#E5E5E5" cx="319.2" cy="166.7" rx="319.2" ry="16"/>
<g>
	<g>
		<path fill="#B9B9B9" d="M206.7,10.5l21.9,17l15.7,111.8l-98.6,13.9L127.3,21.7l79.8-11.2 M205.4,1.1L126,12.3
			c-5.2,0.7-8.8,6-8.1,11.2L136.4,155c0.7,5.2,5.5,8.3,10.7,7.6l98.6-13.9c5.2-0.7,8.8-5.1,8.1-10.3L238.1,26.2
			c-0.4-2.5-1.6-4.7-3.7-6.3l-22-16.8C210.4,1.7,207.9,0.8,205.4,1.1L205.4,1.1z"/>
	</g>
	<g>
		<path fill="#B9B9B9" d="M233.9,30.7l-25.8,3.6c-1.3,0.2-2.5-0.7-2.7-2l-3-21.1c-0.2-1.3,0.7-2.5,2-2.7c1.3-0.2,2.5,0.7,2.7,2
			l2.6,18.8l23.5-3.3c1.3-0.2,2.5,0.7,2.7,2S235.2,30.5,233.9,30.7z"/>
	</g>
	<g>
		<g>
			<path fill="#B9B9B9" d="M172.5,53.7L149,57c-1.3,0.2-2.5-0.7-2.7-2c-0.2-1.3,0.7-2.5,2-2.7l23.5-3.3c1.3-0.2,2.5,0.7,2.7,2
				C174.7,52.3,173.8,53.5,172.5,53.7z"/>
		</g>
		<g>
			<path fill="#B9B9B9" d="M210.1,48.4l-28.2,4c-1.3,0.2-2.5-0.7-2.7-2c-0.2-1.3,0.7-2.5,2-2.7l28.2-4c1.3-0.2,2.5,0.7,2.7,2
				S211.4,48.2,210.1,48.4z"/>
		</g>
		<g>
			<path fill="#B9B9B9" d="M160,67.4l-9.4,1.3c-1.3,0.2-2.5-0.7-2.7-2s0.7-2.5,2-2.7l9.4-1.3c1.3-0.2,2.5,0.7,2.7,2
				C162.2,66,161.3,67.2,160,67.4z"/>
		</g>
		<g>
			<path fill="#B9B9B9" d="M185.9,63.8l-16.4,2.3c-1.3,0.2-2.5-0.7-2.7-2s0.7-2.5,2-2.7l16.4-2.3c1.3-0.2,2.5,0.7,2.7,2
				C188.1,62.4,187.2,63.6,185.9,63.8z"/>
		</g>
		<g>
			<path fill="#B9B9B9" d="M171.1,77.8l-18.8,2.6c-1.3,0.2-2.5-0.7-2.7-2c-0.2-1.3,0.7-2.5,2-2.7l18.8-2.6c1.3-0.2,2.5,0.7,2.7,2
				S172.4,77.6,171.1,77.8z"/>
		</g>
		<g>
			<path fill="#B9B9B9" d="M213.4,71.9l-32.9,4.6c-1.3,0.2-2.5-0.7-2.7-2s0.7-2.5,2-2.7l32.9-4.6c1.3-0.2,2.5,0.7,2.7,2
				S214.7,71.7,213.4,71.9z"/>
		</g>
		<g>
			<path fill="#B9B9B9" d="M211.7,60.1l-14.1,2c-1.3,0.2-2.5-0.7-2.7-2c-0.2-1.3,0.7-2.5,2-2.7l14.1-2c1.3-0.2,2.5,0.7,2.7,2
				S213,60,211.7,60.1z"/>
		</g>
		<g>
			<path fill="#B9B9B9" d="M203.5,121.2l-16.4,2.3c-1.3,0.2-2.5-0.7-2.7-2s0.7-2.5,2-2.7l16.4-2.3c1.3-0.2,2.5,0.7,2.7,2
				C205.7,119.8,204.8,121,203.5,121.2z"/>
		</g>
		<g>
			<path fill="#B9B9B9" d="M218.3,107.1l-16.4,2.3c-1.3,0.2-2.5-0.7-2.7-2s0.7-2.5,2-2.7l16.4-2.3c1.3-0.2,2.5,0.7,2.7,2
				C220.5,105.7,219.6,106.9,218.3,107.1z"/>
		</g>
		<g>
			<path fill="#B9B9B9" d="M192.5,110.7l-35.2,5c-1.3,0.2-2.5-0.7-2.7-2s0.7-2.5,2-2.7l35.2-5c1.3-0.2,2.5,0.7,2.7,2
				C194.7,109.4,193.8,110.6,192.5,110.7z"/>
		</g>
		<g>
			<path fill="#B9B9B9" d="M175.3,125.1l-16.4,2.3c-1.3,0.2-2.5-0.7-2.7-2c-0.2-1.3,0.7-2.5,2-2.7l16.4-2.3c1.3-0.2,2.5,0.7,2.7,2
				C177.5,123.7,176.6,124.9,175.3,125.1z"/>
		</g>
		<g>
			<path fill="#B9B9B9" d="M168,90.2l-14.1,2c-1.3,0.2-2.5-0.7-2.7-2s0.7-2.5,2-2.7l14.1-2c1.3-0.2,2.5,0.7,2.7,2
				C170.2,88.8,169.3,90,168,90.2z"/>
		</g>
		<g>
			<path fill="#B9B9B9" d="M215,83.6l-37.6,5.3c-1.3,0.2-2.5-0.7-2.7-2c-0.2-1.3,0.7-2.5,2-2.7l37.6-5.3c1.3-0.2,2.5,0.7,2.7,2
				C217.2,82.2,216.3,83.4,215,83.6z"/>
		</g>
		<g>
			<path fill="#B9B9B9" d="M186.1,99.7l-30.5,4.3c-1.3,0.2-2.5-0.7-2.7-2c-0.2-1.3,0.7-2.5,2-2.7l30.5-4.3c1.3-0.2,2.5,0.7,2.7,2
				S187.4,99.5,186.1,99.7z"/>
		</g>
		<g>
			<path fill="#B9B9B9" d="M216.7,95.4l-21.1,3c-1.3,0.2-2.5-0.7-2.7-2c-0.2-1.3,0.7-2.5,2-2.7l21.1-3c1.3-0.2,2.5,0.7,2.7,2
				S218,95.2,216.7,95.4z"/>
		</g>
	</g>
</g>
<g>
	<g>
		<path fill="#B9B9B9" d="M350.6,9.5l19.3,19.9v112.9h-99.6V9.5h80.6 M350.6,0h-80.2c-5.2,0-9.6,4.7-9.6,9.9v132.8
			c0,5.2,4.4,9,9.6,9H370c5.2,0,9.3-3.8,9.3-9V29.4c0-2.5-0.9-4.9-2.7-6.7L357.2,3C355.5,1.2,353.1,0,350.6,0L350.6,0z"/>
	</g>
	<g>
		<path fill="#B9B9B9" d="M369.8,33.2h-19c-1.3,0-2.4-1.1-2.4-2.4V9.5c0-1.3,1.1-2.4,2.4-2.4c1.3,0,2.4,1.1,2.4,2.4v19h16.6
			c1.3,0,2.4,1.1,2.4,2.4S371.2,33.2,369.8,33.2z"/>
	</g>
	<g>
		<path fill="#B9B9B9" d="M353.2,121h-66.4c-1.3,0-2.4-1.1-2.4-2.4V45.1c0-1.3,1.1-2.4,2.4-2.4c1.3,0,2.4,1.1,2.4,2.4v71.1h64
			c1.3,0,2.4,1.1,2.4,2.4S354.6,121,353.2,121z"/>
	</g>
	<g>
		<path fill="#B9B9B9" d="M320,106.7c-0.9,0-1.7-0.5-2.1-1.2l-14.2-26.3l-5.6,14.2c-0.5,1.2-1.9,1.8-3.1,1.3
			c-1.2-0.5-1.8-1.9-1.3-3.1l7.5-19c0.3-0.9,1.1-1.4,2.1-1.5c0.9,0,1.8,0.4,2.2,1.2l13.9,25.7l6.7-22.9c0.2-0.8,0.9-1.5,1.8-1.7
			c0.9-0.2,1.7,0.1,2.3,0.8l4.3,5.2l5.8-16.3c0.4-1.2,1.8-1.9,3-1.4c1.2,0.4,1.9,1.8,1.4,3L337.5,85c-0.3,0.8-1,1.4-1.8,1.5
			c-0.8,0.2-1.7-0.2-2.2-0.8l-4.1-4.9l-7.1,24.2c-0.3,0.9-1.1,1.6-2,1.7C320.1,106.7,320,106.7,320,106.7z"/>
	</g>
</g>
<g>
	<g>
		<g>
			<path fill="#B9B9B9" d="M493.4,19.6l16.8,22l-13.5,112.1l-98.9-11.9L413.7,10l80.1,9.6 M494.5,10.2l-79.6-9.6
				c-5.2-0.6-10,3.5-10.7,8.7l-15.9,131.9c-0.6,5.2,3.2,9.5,8.4,10.1l98.9,11.9c5.2,0.6,9.8-2.6,10.4-7.8l13.6-112.6
				c0.3-2.5-0.4-5-1.9-7L500.8,14C499.2,12,497,10.5,494.5,10.2L494.5,10.2z"/>
		</g>
		<g>
			<path fill="#B9B9B9" d="M514.4,46l-25.9-3.1c-1.3-0.2-2.2-1.3-2.1-2.6l2.6-21.2c0.2-1.3,1.3-2.2,2.6-2.1c1.3,0.2,2.2,1.3,2.1,2.6
				l-2.3,18.8l23.5,2.8c1.3,0.2,2.2,1.3,2.1,2.6C516.9,45.3,515.7,46.2,514.4,46z"/>
		</g>
	</g>
	<g>
		<path fill="#B9B9B9" d="M419.9,47.1l-7.8,59.9l73.7,9.6l7.8-59.9L419.9,47.1z M481.9,111.4l-64.5-8.4l6.6-50.7l64.5,8.4
			L481.9,111.4z M468.5,69.9c-0.5,3.8,2.2,7.3,6,7.8c3.8,0.5,7.3-2.2,7.8-6c0.5-3.8-2.2-7.3-6-7.8C472.5,63.3,469,66,468.5,69.9
			L468.5,69.9z M477.9,106.2L422.6,99L441.2,64l15.4,25.4l10.1-5.7L477.9,106.2z M477.9,106.2"/>
	</g>
</g>
<g>
	<g>
		<g>
			<path fill="#B9B9B9" d="M82.7,30.5l19.5,15.1l14,99.4l-87.7,12.3L12.1,40.4l71-10 M81.5,22.1L11,32c-4.6,0.6-7.8,5.3-7.2,9.9
				l16.4,116.9c0.6,4.6,4.9,7.4,9.5,6.8l87.7-12.3c4.6-0.6,7.8-4.5,7.2-9.1l-14-99.8c-0.3-2.2-1.5-4.2-3.3-5.6L87.8,23.9
				C86,22.6,83.8,21.8,81.5,22.1L81.5,22.1z"/>
		</g>
		<g>
			<path fill="#B9B9B9" d="M106.9,48.4l-23,3.2c-1.2,0.2-2.2-0.6-2.4-1.8L78.9,31c-0.2-1.2,0.6-2.2,1.8-2.4c1.2-0.2,2.2,0.6,2.4,1.8
				l2.3,16.7l20.9-2.9c1.2-0.2,2.2,0.6,2.4,1.8S108,48.2,106.9,48.4z"/>
		</g>
	</g>
	<g>
		<path fill="#B9B9B9" d="M37.9,86.5c1.3-0.4,3.1-0.8,5.4-1.1c2.8-0.4,4.9,0,6.4,1c1.3,0.9,2.3,2.4,2.5,4.3c0.3,2-0.1,3.6-1.1,4.9
			c-1.3,1.8-3.6,2.9-6.4,3.3c-0.8,0.1-1.6,0.2-2.3,0.1l1.2,8.8l-2.8,0.4L37.9,86.5z M42.2,96.7c0.6,0.1,1.4,0,2.4-0.1
			c3.4-0.4,5.3-2.4,4.9-5.4c-0.4-2.9-2.6-4-5.8-3.6c-1.2,0.2-2.2,0.4-2.6,0.6L42.2,96.7z"/>
		<path fill="#B9B9B9" d="M55.3,84.3c1.7-0.5,3.7-1,6-1.2c4.1-0.5,7.1,0,9.3,1.6c2.2,1.5,3.7,3.9,4.1,7.5c0.5,3.6-0.3,6.7-2,9
			c-1.8,2.3-5,3.9-9.3,4.4c-2,0.3-3.7,0.4-5.2,0.4L55.3,84.3z M60.7,103.3c0.7,0,1.8-0.1,2.9-0.2c6.1-0.8,8.9-4.6,8.1-10.6
			c-0.6-5.2-4-8.1-10-7.3c-1.5,0.2-2.6,0.5-3.3,0.7L60.7,103.3z"/>
		<path fill="#B9B9B9" d="M77,81.1l11.8-1.6l0.3,2.4l-9,1.2l1,7.3l8.3-1.1l0.3,2.3l-8.3,1.1l1.3,9.9l-2.8,0.4L77,81.1z"/>
	</g>
</g>
<g>
	<g>
		<g>
			<g>
				<g>
					<path fill="#B9B9B9" d="M609.7,37.9l15.3,19.3l-10.2,99.9l-88.1-9l12-117.4l71.3,7.3 M610.6,29.5l-70.9-7.2
						c-4.6-0.5-8.9,3.3-9.3,7.9l-12,117.4c-0.5,4.6,3,8.4,7.6,8.8l88.1,9c4.6,0.5,8.7-2.5,9.2-7.1l10.2-100.3
						c0.2-2.2-0.4-4.4-1.8-6.2l-15.4-19.1C614.8,31.1,612.8,29.8,610.6,29.5L610.6,29.5z"/>
				</g>
				<g>
					<path fill="#B9B9B9" d="M628.9,61.1l-23.1-2.4c-1.2-0.1-2-1.2-1.9-2.3l1.9-18.9c0.1-1.2,1.2-2,2.3-1.9c1.2,0.1,2,1.2,1.9,2.3
						l-1.7,16.8l21,2.1c1.2,0.1,2,1.2,1.9,2.3S630.1,61.2,628.9,61.1z"/>
				</g>
			</g>
			<g>
				<path fill="#B9B9B9" d="M562.2,105.7c-0.4,0-0.8-0.3-1-0.7L554,93.4c-0.3-0.5-0.3-1.3,0.2-1.7l9.3-9.3c0.5-0.5,1.4-0.5,2,0
					c0.5,0.5,0.5,1.4,0,2l-8.5,8.5l6.6,10.7c0.4,0.7,0.2,1.5-0.5,1.9C562.8,105.7,562.5,105.8,562.2,105.7z"/>
			</g>
		</g>
		<g>
			<path fill="#B9B9B9" d="M587.2,105.7c-0.3,0-0.6-0.2-0.8-0.4c-0.5-0.5-0.5-1.4,0-2l8.5-8.5l-6.6-10.7c-0.4-0.7-0.2-1.5,0.5-1.9
				c0.7-0.4,1.5-0.2,1.9,0.5l7.2,11.7c0.3,0.6,0.3,1.3-0.2,1.7l-9.3,9.3C588.1,105.6,587.6,105.8,587.2,105.7z"/>
		</g>
	</g>
	<g>
		<path fill="#B9B9B9" d="M579.5,109.6c-0.6-0.1-1-0.4-1.2-1l-8.2-28.7c-0.2-0.7,0.2-1.5,1-1.7c0.7-0.2,1.5,0.2,1.7,1l8.2,28.7
			c0.2,0.7-0.2,1.5-1,1.7C579.8,109.7,579.6,109.7,579.5,109.6z"/>
	</g>
</g>
</svg>
