<?xml version="1.0" encoding="utf-8"?>
<!-- Generator: Adobe Illustrator 19.2.1, SVG Export Plug-In . SVG Version: 6.00 Build 0)  -->
<!DOCTYPE svg PUBLIC "-//W3C//DTD SVG 1.1//EN" "http://www.w3.org/Graphics/SVG/1.1/DTD/svg11.dtd">
<svg version="1.1" id="Layer_1" xmlns="http://www.w3.org/2000/svg" xmlns:xlink="http://www.w3.org/1999/xlink" x="0px" y="0px"
	 width="641.2px" height="123.1px" viewBox="1660 -666.4 641.2 123.1" enable-background="new 1660 -666.4 641.2 123.1"
	 xml:space="preserve">
<ellipse fill="#E6E6E6" cx="1979.5" cy="-559.4" rx="319.2" ry="16"/>
<g>
	<polygon fill="#B6BAC0" points="1838,-605.9 1838,-616.7 1807.6,-616.7 1807.6,-623.3 1827.1,-623.3 1827.1,-666.6 1783.7,-666.6 
		1783.7,-623.3 1803.3,-623.3 1803.3,-616.7 1772.9,-616.7 1772.9,-605.9 1753.4,-605.9 1753.4,-562.5 1796.8,-562.5 1796.8,-605.9 
		1777.2,-605.9 1777.2,-612.4 1833.6,-612.4 1833.6,-605.9 1814.1,-605.9 1814.1,-562.5 1857.5,-562.5 1857.5,-605.9 	"/>
	<polygon fill="#B6BAC0" points="2012,-605.9 2012,-616.7 1981.6,-616.7 1981.6,-623.3 2001.2,-623.3 2001.2,-666.6 1957.8,-666.6 
		1957.8,-623.3 1977.3,-623.3 1977.3,-616.7 1946.9,-616.7 1946.9,-605.9 1927.4,-605.9 1927.4,-562.5 1970.8,-562.5 1970.8,-605.9 
		1951.3,-605.9 1951.3,-612.4 2007.7,-612.4 2007.7,-605.9 1988.1,-605.9 1988.1,-562.5 2031.5,-562.5 2031.5,-605.9 	"/>
	<polygon fill="#B6BAC0" points="2186,-605.9 2186,-616.7 2155.6,-616.7 2155.6,-623.3 2175.2,-623.3 2175.2,-666.6 2131.8,-666.6 
		2131.8,-623.3 2151.3,-623.3 2151.3,-616.7 2120.9,-616.7 2120.9,-605.9 2101.4,-605.9 2101.4,-562.5 2144.8,-562.5 2144.8,-605.9 
		2125.3,-605.9 2125.3,-612.4 2181.7,-612.4 2181.7,-605.9 2162.2,-605.9 2162.2,-562.5 2205.5,-562.5 2205.5,-605.9 	"/>
</g>
</svg>
