<?xml version="1.0" encoding="utf-8"?>
<!-- Generator: Adobe Illustrator 20.1.0, SVG Export Plug-In . SVG Version: 6.00 Build 0)  -->
<!DOCTYPE svg PUBLIC "-//W3C//DTD SVG 1.1//EN" "http://www.w3.org/Graphics/SVG/1.1/DTD/svg11.dtd">
<svg version="1.1" id="Layer_1" xmlns="http://www.w3.org/2000/svg" xmlns:xlink="http://www.w3.org/1999/xlink" x="0px" y="0px"
	 width="641.2px" height="99.5px" viewBox="0 0 641.2 99.5" style="enable-background:new 0 0 641.2 99.5;" xml:space="preserve">
<style type="text/css">
	.st0{fill:#E6E6E6;}
	.st1{fill:#B6BAC0;}
</style>
<ellipse class="st0" cx="320.4" cy="82.6" rx="319.2" ry="16"/>
<g>
	<g>
		<path class="st1" d="M180.2,14.3h-4.3h-3.6h-6.8h-61.3v2.5V61v3.6v1.8v12.6h84.3V14.3H180.2z M160.3,38.8c-2.2,0-4.2-1.2-5.3-3.1
			l-17.9,7.5c0.2,0.5,0.2,1.1,0.2,1.6c0,1.1-0.3,2.1-0.8,2.9l11.5,8.3c1.1-1.2,2.8-2,4.5-2c3.4,0,6.1,2.8,6.1,6.1
			c0,3.4-2.8,6.1-6.1,6.1c-3.4,0-6.1-2.8-6.1-6.1c0-1,0.2-2,0.7-2.8L135.6,49c-1.1,1.2-2.8,2-4.5,2c-3.4,0-6.1-2.8-6.1-6.1
			c0-3.4,2.8-6.1,6.1-6.1c2.2,0,4.2,1.2,5.3,3.1l17.9-7.5c-0.2-0.5-0.2-1.1-0.2-1.7c0-3.4,2.8-6.1,6.1-6.1s6.1,2.8,6.3,6.1
			C166.5,36,163.7,38.8,160.3,38.8z"/>
		<polygon class="st1" points="172.3,10.8 175.9,10.8 175.9,0 91.6,0 91.6,64.6 100.6,64.6 100.6,61 100.6,10.8 165.5,10.8 		"/>
	</g>
	<g>
		<path class="st1" d="M300.4,14.3h-4.3h-3.6h-6.8h-61.3v2.5V61v3.6v1.8v12.6h84.3V14.3H300.4z M280.6,38.8c-2.2,0-4.2-1.2-5.3-3.1
			l-17.9,7.5c0.2,0.5,0.2,1.1,0.2,1.6c0,1.1-0.3,2.1-0.8,2.9l11.5,8.3c1.1-1.2,2.8-2,4.5-2c3.4,0,6.1,2.8,6.1,6.1
			c0,3.4-2.8,6.1-6.1,6.1c-3.4,0-6.1-2.8-6.1-6.1c0-1,0.2-2,0.7-2.8L255.8,49c-1.1,1.2-2.8,2-4.5,2c-3.4,0-6.1-2.8-6.1-6.1
			c0-3.4,2.8-6.1,6.1-6.1c2.2,0,4.2,1.2,5.3,3.1l17.9-7.5c-0.2-0.5-0.2-1.1-0.2-1.7c0-3.4,2.8-6.1,6.1-6.1c3.4,0,6.1,2.8,6.3,6.1
			C286.7,36,283.9,38.8,280.6,38.8z"/>
		<polygon class="st1" points="292.5,10.8 296.1,10.8 296.1,0 211.8,0 211.8,64.6 220.8,64.6 220.8,61 220.8,10.8 285.7,10.8 		"/>
	</g>
	<g>
		<path class="st1" d="M420.7,14.3h-4.3h-3.6h-6.8h-61.3v2.5V61v3.6v1.8v12.6h84.3V14.3H420.7z M400.8,38.8c-2.2,0-4.2-1.2-5.3-3.1
			l-17.9,7.5c0.2,0.5,0.2,1.1,0.2,1.6c0,1.1-0.3,2.1-0.8,2.9l11.5,8.3c1.1-1.2,2.8-2,4.5-2c3.4,0,6.1,2.8,6.1,6.1
			c0,3.4-2.8,6.1-6.1,6.1c-3.4,0-6.1-2.8-6.1-6.1c0-1,0.2-2,0.7-2.8L376.1,49c-1.1,1.2-2.8,2-4.5,2c-3.4,0-6.1-2.8-6.1-6.1
			c0-3.4,2.8-6.1,6.1-6.1c2.2,0,4.2,1.2,5.3,3.1l17.9-7.5c-0.2-0.5-0.2-1.1-0.2-1.7c0-3.4,2.8-6.1,6.1-6.1s6.1,2.8,6.3,6.1
			C406.9,36,404.2,38.8,400.8,38.8z"/>
		<polygon class="st1" points="412.8,10.8 416.3,10.8 416.3,0 332.1,0 332.1,64.6 341,64.6 341,61 341,10.8 405.9,10.8 		"/>
	</g>
	<g>
		<path class="st1" d="M540.9,14.3h-4.3H533h-6.8h-61.3v2.5V61v3.6v1.8v12.6h84.3V14.3H540.9z M521,38.8c-2.2,0-4.2-1.2-5.3-3.1
			l-17.9,7.5c0.2,0.5,0.2,1.1,0.2,1.6c0,1.1-0.3,2.1-0.8,2.9l11.5,8.3c1.1-1.2,2.8-2,4.5-2c3.4,0,6.1,2.8,6.1,6.1
			c0,3.4-2.8,6.1-6.1,6.1c-3.4,0-6.1-2.8-6.1-6.1c0-1,0.2-2,0.7-2.8L496.3,49c-1.1,1.2-2.8,2-4.5,2c-3.4,0-6.1-2.8-6.1-6.1
			c0-3.4,2.8-6.1,6.1-6.1c2.2,0,4.2,1.2,5.3,3.1l17.9-7.5c-0.2-0.5-0.2-1.1-0.2-1.7c0-3.4,2.8-6.1,6.1-6.1c3.4,0,6.1,2.8,6.3,6.1
			C527.2,36,524.4,38.8,521,38.8z"/>
		<polygon class="st1" points="533,10.8 536.6,10.8 536.6,0 452.3,0 452.3,64.6 461.3,64.6 461.3,61 461.3,10.8 526.2,10.8 		"/>
	</g>
</g>
</svg>
